<?xml version="1.0" encoding="utf-8"?>
<!-- Generator: Adobe Illustrator 21.0.2, SVG Export Plug-In . SVG Version: 6.00 Build 0)  -->
<svg version="1.1" id="Layer_1" xmlns="http://www.w3.org/2000/svg" xmlns:xlink="http://www.w3.org/1999/xlink" x="0px" y="0px"
	 viewBox="0 0 792 1224" style="enable-background:new 0 0 792 1224;" xml:space="preserve">
<style type="text/css">
	.st0{fill:#020202;}
	.st1{fill:#ED1C24;}
	.st2{fill:#F47421;}
	.st3{fill:#EAD122;}
	.st4{font-family:'TequilaSunrise-Regular';}
	.st5{font-size:40.9617px;}
</style>
<path d="M401.1,534.2c0,10-8.1,18.1-18.1,18.1c-10,0-18.1-8.1-18.1-18.1c0-1.8,0.3-3.6,0.8-5.3h34.5
	C400.9,530.5,401.1,532.3,401.1,534.2z"/>
<polygon class="st0" points="368.8,616.5 402,616.5 395.4,627.5 378.2,627.5 "/>
<polygon class="st0" points="403.8,594.3 402.3,613.2 368.5,613.2 366.2,594.3 "/>
<polygon class="st0" points="405.3,576.3 404.1,591 365.8,591 364.1,576.3 "/>
<polygon class="st0" points="406.8,556.8 405.5,573 363.7,573 361.7,556.8 "/>
<polygon class="st0" points="408.7,533 407.1,553.5 361.3,553.5 358.9,533 364.1,528.8 402.3,528.8 "/>
<polygon points="436,550.9 409.6,550.9 411,533 432.3,533 "/>
<polygon points="458.7,536.2 437.9,550.9 434,532.6 451,525.2 "/>
<path d="M459.9,535.4l-7.7-11.1v-3.2c0.4,0.1,0.7,0.1,1.1,0.1c2.3,0,4.3-1.1,5.6-2.8L459.9,535.4z"/>
<polygon points="332.6,551.3 359.1,551.3 357.1,533.4 336.3,533.4 "/>
<polygon points="309.9,536.6 330.8,551.3 334.6,533 317.6,525.6 "/>
<path d="M316.4,519.1v5.6l-7.7,11.1l1.2-21C310.9,517.3,313.4,519.1,316.4,519.1z"/>
<circle cx="316.7" cy="511.4" r="6.8"/>
<circle cx="453" cy="513.1" r="6.8"/>
<path d="M309.9,510.6c0.3-5.2,3.1-19.6,11.4-25.1c8.3-5.6-2,0.2-1.9,5.8c0.1,5.6,3.4,16.7,3.7,18.1
	C323.4,510.8,309.9,510.6,309.9,510.6z"/>
<path d="M459.8,513.1c-0.3-5.2-3.1-19.6-11.4-25.1c-8.3-5.6,2,0.2,1.9,5.8c-0.1,5.6-3.4,16.7-3.7,18.1
	C446.3,513.4,459.8,513.1,459.8,513.1z"/>
<polygon class="st0" points="386.9,646.9 378.5,646.9 378.5,630 395.3,630 "/>
<polygon class="st0" points="414,646.9 389,646.9 397.6,630 404.6,630 "/>
<polygon class="st0" points="429.9,646.9 416.1,646.9 406.9,630 416.4,630 "/>
<polygon class="st0" points="434,646.9 432.1,646.9 418.8,630 434.1,630 "/>
<path class="st0" d="M434.1,619.3v8.9h-15.2v-7.6c1.4,2.6,4.2,4.4,7.3,4.4C429.9,624.9,433,622.5,434.1,619.3z"/>
<circle class="st0" cx="426.2" cy="616.6" r="7.1"/>
<path class="st0" d="M432.1,617.4c2.5,1.9,0.3-10.8-3.1-17.6c-3.7-7.5,4.5,7.1-1.9,11C424.2,612.5,432.1,617.4,432.1,617.4z"/>
<path class="st0" d="M437.1,514.4v1.6H333.7v-1.6c0-1.5,13.5-2.8,15-2.8H425C426.5,511.6,437.1,512.9,437.1,514.4z"/>
<path class="st0" d="M333.7,518.7h103.4v1.8c0,1.5-9.7,2.8-11.2,2.8h-77c-1.5,0-15.2-1.3-15.2-2.8V518.7z"/>
<path class="st0" d="M377.4,489.3c2.2-6,10.2-6.7,13.1-0.7c2.9,6,10.6,23,10.6,23h-31.8L377.4,489.3z"/>
<line x1="395.3" y1="531.8" x2="368.9" y2="531.8"/>
<g>
	<g>
		<path class="st1" d="M372.2,535.5c-1.5,1-2.3,0.8-2.7-0.7c-0.2-0.6,0-1.2,0-1.9c0-0.4-0.2-0.8-0.3-1.3c-0.1,0-0.2,0-0.3,0
			c-0.1,0.2-0.2,0.4-0.3,0.8c-0.3-0.4-0.4-0.6-0.6-0.9c-0.3,0.3-0.5,0.6-0.7,0.8c-1.1,0.9-1,1.4,0.3,2.2c1.9,1.2,2.3,2.7,1,4.4
			c-0.1,0.2-0.2,0.5-0.1,0.7c0.6,1,1.2,2,1.9,3.1c0.5-0.5,0.7-0.7,1-0.9c0.3,0.8,0.5,1.5,0.7,2c0.6-0.1,1-0.2,1.5-0.2
			c0,0.4,0.2,0.9,0.1,1.3c-0.1,0.4-0.5,0.8-0.8,1.1c2.2,0.5,0.2,1.6,1.1,2.4c0.5-0.4,1.2-0.8,1.4-1.2c0.4-1.1,0.5-2.2,0.8-3.4
			c-0.3-0.3-1.2-0.8-1.3-1.4c-0.1-0.8-1.8-1.2-0.9-2.2c0,0-0.1-0.3-0.2-0.3c-2.1-0.2-1.8-1.4-1.8-2.3c0.4-0.1,0.8-0.4,0.7-0.6
			C372.5,536.7,372.3,536.1,372.2,535.5z M376.8,559c0.1,0,0.2-0.1,0.3-0.1c-0.6-1-1.2-1.9-1.8-2.9c-0.3-0.6-0.5-1,0.7-0.8
			c0.3,0.1,0.7-0.2,1-0.3c0-0.1-0.1-0.2-0.1-0.3c-0.3,0-0.6,0-0.7-0.1c-0.3-1.2-0.6-2.3-0.9-3.4c-0.7,0.7-1.6,1.6-1.3,2.1
			c0.9,1.4,0.4,2.7,0.4,4.1c0,0.8-0.3,1.6,1.4,1.2C376.1,558.5,376.5,558.8,376.8,559z M366.4,528.2c-0.5-1.8-1.7-2.8-3-2.7
			c-0.1,0.4-0.2,0.8-0.3,1.2c1.9,0.1,1.2,1.6,2.1,2.1C365.5,528.6,364.8,527.5,366.4,528.2z M374,563.5c2-1.3,2.3-2.6,0.9-3.3
			C374.6,561.3,374.3,562.4,374,563.5z M361.5,531.9c0.1,0,0.2,0,0.3,0.1c0.1-0.9,0.2-1.9,0.3-2.8c-0.2,0-0.4-0.1-0.5-0.1
			c-0.2,0.3-0.6,0.5-0.6,0.8C361.1,530.6,361.3,531.2,361.5,531.9z M374.5,550c0.7,0.3,1.1,0.5,1.9,0.9c-0.4-0.8-0.7-1.5-1-2.3
			C375,549.2,374.8,549.6,374.5,550z"/>
		<path class="st2" d="M384.8,625.9c-0.1,0.6-0.2,1.2-0.2,1.8c-0.1,0-0.2,0-0.4,0c0-0.5-0.1-0.9-0.1-1.4c-0.1,0-0.2,0-0.2,0
			c-0.3,0.4-0.6,0.9-0.9,1.3c-0.1,0-0.3-0.1-0.4-0.1c0.1-0.4,0.1-0.7,0.2-1.2c-0.8,0-1.5-0.1-2.3-0.1c-0.3-0.7-0.6-1.5-1-2.2
			c-0.1-0.2-0.7-0.1-1-0.3c-0.4-0.2-0.7-0.5-1-0.8c1.4-0.7,0.6-1.6,0.2-2.5c0.6,0.1,0.9,0.1,1.2,0.1c0.9,0.1,1.3-0.1,1.1-0.8
			c-0.1-0.4,0.1-0.8,0.1-1.3c1.2,0.4,2.2,0.7,2.9-0.3c0.3-0.4,2.1-0.1,2.7,0.5c0.2,0.2,0.3,0.4,0.5,0.7c0.3-0.1,0.6-0.2,0.8-0.3
			c0.2-0.1,0.5-0.2,0.9-0.4c-0.2,0.8-0.5,1.4-0.6,2c0,0.2,0.5,0.4,0.8,0.6c0.3,0.2,0.7,0.3,0.8,0.4c0.1,0.2-0.3,0.4-0.5,0.6
			c-0.2,0.3-0.6,0.5-0.7,0.8c-0.1,0.8,0,1.5-0.1,2.3c0,0.2-0.3,0.5-0.3,0.5c-0.5-0.1-0.9-0.2-1.3-0.3c-0.1,0.4-0.3,0.8-0.4,1.3
			C385.4,626.5,385.1,626.2,384.8,625.9z"/>
		<path class="st1" d="M363.3,642.1c-0.4,0.7-0.6,1.4-1.1,2c-0.7,0.9-1.8,1.1-3,0.9c-1.4-0.2-1.8-0.9-2-1.8
			c-0.2-0.9,0.5-1.5,1.3-2.1c0.4-0.3,0.6-0.9,0.6-1.4c-0.1-1.1,0.7-2.6,1.9-3.1c1.7-0.7,3.4-0.9,5,0.1c1.2,0.7,2,2.5,1.6,3.5
			C367,641.3,365.1,642.1,363.3,642.1z"/>
		<path class="st1" d="M447.1,491.8c0.7,0,0.9,0,1.5-0.1c-0.6,0.8-1.1,1.4-1.6,2.1c-0.7,0.9-2,1-3.2,1c-1.1,0-1.7-0.6-1.3-1.4
			c0.2-0.6,0.7-1.1,1-1.7c0.1-0.3,0-0.7-0.1-1c-0.1-0.1-0.6-0.2-0.8-0.2c-0.1,0.3-0.4,0.6-0.4,0.9c0.3,1.7-1,2.8-2.7,3.7
			c-1.2,0.6-2.2,0.3-2.5-0.7c-0.3-1,0.8-2.1,2.1-2.4c0.8-0.2,1.7-0.6,1.2-1.5c-0.5-0.8,0.5-2,1.7-2.1c2.3-0.1,4.6-0.2,7.2-0.3
			c-0.2,1-0.2,1.6-0.5,2.2C448.4,490.7,447.8,491.2,447.1,491.8z"/>
		<path class="st2" d="M450.8,569c0.6-0.6,0.9-0.9,1.2-1.2c-0.1-0.1-0.2-0.1-0.2-0.2c-0.2,0-0.4,0.1-0.7,0.1
			c-1.9,0.5-3.7-0.1-4.7-1.4c-1-1.3,0-3.5,1.6-4.1c1-0.4,1.6-0.8,2.3-1.3c0.2-0.1,0.5-0.3,0.7-0.3c1.5-0.2,4.9,1.8,4.8,2.9
			c-0.2,1.2-0.6,2.4-0.5,3.7c0,0.1-0.3,0.3-0.5,0.3c-0.2,0-0.4-0.2-0.5-0.3c-0.2-0.2-0.2-0.5-0.3-0.8c-0.2,0-0.3,0-0.5-0.1
			c-0.2,0.4-0.5,0.8-0.6,1.3C452.6,568.5,452.7,568.5,450.8,569z"/>
		<path class="st2" d="M412.2,591.8c-2-0.2-3.3-1.1-4.2-2.3c-0.7-0.9,0.1-1.8,1-2.5c0.7-0.6,1.1-1.4,2.4-1.8
			c1.3-0.3,2.8-0.5,3.8,0.1c1.1,0.6,2.3,1.2,2.1,2.4c-0.3,1.4-0.6,2.8-2.3,3.6C414.2,591.7,413.1,591.6,412.2,591.8z"/>
		<path class="st2" d="M371.7,508c-0.1,0.3-0.3,0.7-0.3,1c0.1,0.7,0.4,1.3,0.6,2c0.1,0.6,0.2,1.2,0.5,1.8c0.7-1-0.9-2.3,1-3
			c0.7,1.1,1.2,0.2,1.9-0.2c1,1.3,0.8,2.5,0.4,3.7c-0.5,1.4-1.2,2.8-1.7,4.2c-0.3,0.8-1.2,0.7-1.7,0.5c-0.4-0.2-0.8-1.1-0.6-1.3
			c1-0.9,0.2-1.8,0.4-2.8c-0.9,0.6-1.7,1.1-2.8,1.8c-0.4-1.5-0.4-2.7,0.2-3.8c-0.4-0.2-0.8-0.3-1.2-0.4c0.2-0.3,0.4-0.6,0.6-1
			c0.1-0.1,0.2-0.2,0.2-0.2c-0.7-1.6,1.7-2.3,1.7-3.7c0.2,0,0.3,0,0.5,0C371.6,507,371.6,507.5,371.7,508L371.7,508z"/>
		<path class="st2" d="M352.7,618.7c3,0.2,3.8,0.7,4.4,2.7c0.1,0.3,0.5,0.5,0.7,0.8c0.2,0.2,0.5,0.4,0.4,0.6c0,0.2-0.4,0.4-0.7,0.4
			c-1.5,0-1.8,0.9-2.3,1.7c-0.2,0.4-0.6,0.8-1,0.9c-0.3,0.1-1-0.1-1.3-0.3c-1-0.6-2-1.3-2.9-2c-0.2-0.2-0.3-0.4-0.5-0.7
			c-0.1-0.2-0.2-0.5-0.4-0.6c-1.2-0.5-0.8-0.9,0.1-1.4c0.4-0.2,0.5-0.9,0.9-1.1C351.1,619.3,352.1,618.9,352.7,618.7z"/>
		<path class="st1" d="M326.9,629.5c0.3-0.4,0.7-0.8,1-1.3c0.6-1.1,1.8-1.7,3.5-1.7c1.2,0,3.2,0.9,3.5,1.8c0.9,2.2,0.2,4.1-3.3,4.5
			c-0.8,0.1-1.9-0.2-2.5-0.7c-0.8-0.6-2-1.2-1.7-2.3C327.5,629.7,327,629.5,326.9,629.5z"/>
		<path class="st1" d="M374.2,626c0.9,0.5,1.8,1.1,2.9,1.8c-0.8,0.3-1.3,0.5-2,0.8c0.7,0.6,1.4,1,1.9,1.6c0.3,0.3,0.5,0.9,0.3,1.2
			c-0.4,0.5-1.2,0.9-0.8,1.7c0,0-0.6,0.3-0.8,0.3c-0.3-0.1-0.6-0.4-0.7-0.6c0-0.2,0.2-0.5,0.5-1c-1,0.3-1.6,0.5-2.3,0.6
			c-1.3,0.2-2.6,0.2-3.9,0.3c-0.3,0-0.9-0.3-1-0.5c-0.1-0.4-0.1-1.1,0.2-1.2c1-0.4,1-1.2,1.5-1.7c0.5-0.6,1.2-1.3,2-1.4
			c1.2-0.2,1.7-0.6,1.6-1.5C373.9,626.1,374,626.1,374.2,626z"/>
		<path class="st1" d="M405.8,580.4c-0.4,0.1-0.9,0.1-1.4,0.2c-1.7,0.5-3.2,0.3-4.4-0.8c-1-0.9-0.8-1.8,0.1-2.7c0.2-0.2,0-0.7,0-1.3
			c0,0,0.4,0,0.9-0.1c0-0.3,0.1-0.7,0.1-1.2c0.3,0.4,0.5,0.5,0.6,0.7c1-0.2,2-0.4,3-0.5c0.3,0,1,0.3,1,0.6c0.2,1.1,0.3,2.2,0.3,3.2
			C406,579.3,405.9,579.8,405.8,580.4z"/>
		<path class="st1" d="M413.4,577.1c0.4-0.4,1.4-0.7,0.6-1.4c-0.1-0.1,0.1-0.5,0.3-0.6c0.2-0.1,0.7-0.1,0.9,0c0.8,0.3,1.6,0.8,2.5,1
			c1.1,0.3,1.2,0.8,0.6,1.4c-0.8,0.9-0.6,1.6-0.3,2.6c0.2,0.6-0.4,1.5-0.8,2.2c-0.2,0.3-0.5,0.6-0.8,0.9c-3.5-0.5-3.8-0.9-3.1-3.4
			c0.2-0.6,0.4-1.1,0.5-1.7C413.9,577.7,413.6,577.4,413.4,577.1z"/>
		<path class="st2" d="M337.7,640.8c0,1.4-1.6,2.5-3.6,2.5c-1.6,0-3.2-1.1-3.2-2.5c0-1.4,1.9-2.5,4-2.5
			C336.3,638.3,337.7,639.7,337.7,640.8z"/>
		<path class="st2" d="M408.7,569.7c-0.2,1.4-2.6,2.9-4.2,2.5c-0.2,0-0.4-0.2-0.4-0.3c-0.2-0.7-0.8-1.9-0.5-2.1
			c1.3-0.7,1.8-1.5,1.4-2.6c1-0.2,2.1-0.4,3.1-0.5c0.5,0,1.1,0.1,1.6,0.3c0.4,0.1,0.9,0.3,1.1,0.6c0.1,0.2-0.2,0.6-0.4,0.8
			C409.7,568.9,409,569.4,408.7,569.7z"/>
		<path class="st2" d="M390.2,603.9c-1.1,0.5-2.1,1-3.2,1.3c-0.8,0.1-2,0-2.5-0.4c-0.5-0.4-0.8-1.4-0.6-1.9c0.2-0.5,1.3-1,2.1-1.2
			c0.7-0.2,1.6-0.1,2.4,0c1.1,0.1,1.7,0.5,1.9,1.4c0.8-0.6,1.7-0.8,2.5-0.1c0.6,0.5,0.5,1.1-0.2,1.5
			C391.6,605.1,390.9,604.5,390.2,603.9z"/>
		<path class="st2" d="M379.7,612.5c0.1,0.8,0.3,1.5,0.2,2.3c0,0.3-0.6,0.8-0.9,0.8c-0.5,0-1.1-0.2-1.6-0.5c-0.5-0.3-0.7-0.8-1.2-1
			c-1.1-0.6-1.8-1.5-1.4-2.3c0.5-0.9,1.1-1.6,2.6-1.5C378.8,610.5,379.9,611.5,379.7,612.5z"/>
		<path class="st2" d="M363.1,606.7c-0.6-0.6-0.8-1.1-1.3-1.4c-0.8-0.5-0.7-0.9-0.2-1.4c0.7-0.7,1.3-1.6,2.2-2
			c0.7-0.3,1.9-0.3,2.7-0.1c0.4,0.1,0.5,1.2,0.3,1.8c-0.3,0.8-0.4,1.8-2.1,2.1C364.1,605.7,363.6,606.3,363.1,606.7z"/>
		<path class="st1" d="M398.1,571.2c-0.3-0.6-0.8-1.2-1-1.8c-0.1-0.4-0.2-1,0.1-1.2c0.6-0.4,1.1,0,1.6,0.4c1,0.7,2.1,1.3,3.2,1.9
			c0.8,0.4,0.6,1.9-0.5,2.4c-0.5,0.2-1.2,0.3-1.8,0.5c-1.1,0.2-1.8,0-1.9-0.9c0-0.4-0.2-0.7-0.2-1.1
			C398,571.3,398.1,571.3,398.1,571.2z"/>
		<path class="st2" d="M389.6,539.1c-0.5,0.7-0.9,1.4-1.4,2.1c-0.6,0.8-1.4,1.5-2.1,2.2c-0.1,0.1-0.6,0.3-0.7,0.3
			c-0.2-0.1-0.6-0.5-0.5-0.5c0.8-0.7-0.3-1.1-0.5-1.7c-0.2-0.6-0.7-1.3-0.6-1.9c0.2-1.4,1.7-2.1,3.7-1.1c0.4,0.2,0.6,0.8,1.4,0.4
			C389.1,538.8,389.4,539,389.6,539.1z"/>
		<path class="st3" d="M399.8,621.9c1.9,0.8,2.3,1.7,1.4,2.8c-0.7,0.7-2.1,0.9-3.1,0.3c-1.2-0.7-1.1-1.8,0.3-2.9
			c-0.5-0.8-1.3-1.7,0-2.5c0.3-0.2,1.2-0.2,1.5,0.1C401,620.3,400.4,621.1,399.8,621.9z"/>
		<path class="st3" d="M369.7,634.4c-0.7,0.5-1.3,1.1-2.1,1.6c-0.9,0.5-1.9,0.4-2.6-0.3c-0.1-0.1-0.3-0.2-0.4-0.3
			c-0.5-0.3-1-0.6-1.5-0.9c1.5-0.7,1.8-2.4,4.1-2.4C368.2,632.1,369.4,633.2,369.7,634.4z"/>
		<path class="st3" d="M450.6,553.2c-2.5-0.1-3.1-0.6-3.3-2.2c-0.1-0.9,1.2-1.9,2.1-1.6c1.3,0.3,2.5,1,3.4,1.7
			c0.3,0.2-0.4,1.3-0.9,1.8C451.7,553.1,450.8,553.1,450.6,553.2z"/>
		<path class="st2" d="M421.7,514.5c0.1-0.1,0.2-0.1,0.3-0.2c1.1-1,2.1-1.9,3.2-2.9c0.1,0,0.3,0.1,0.4,0.1c-0.1,0.5-0.1,0.9-0.2,1.5
			c0.3,0.1,0.7,0.2,1.1,0.3c0,0.4,0.2,0.8,0,1.1c-0.3,0.6-0.7,1.3-1.3,1.6c-0.6,0.3-1.5,0.4-2.3,0.4
			C421.7,516.5,421.4,515.9,421.7,514.5z"/>
		<path class="st2" d="M373.5,581.4c-0.7,0.1-1.4,0.1-2.1,0.2c-0.4,0-0.8,0.2-1.2,0.1c-0.7,0-1.5,0-1.9-0.2c-0.4-0.3-0.6-1-0.6-1.4
			c0.1-0.5,0.6-1,1.6-0.9c0.4,0,0.8-0.2,1.2-0.3c1.3-0.4,2.2,0,2.4,1C373,580.3,373.2,580.7,373.5,581.4z"/>
		<path class="st1" d="M393.1,616.7c-0.2,0.6-0.3,1.2-0.5,1.7c0,0.1-0.8,0.1-0.8,0.1c-0.2-0.5-0.4-0.9-0.2-1.5
			c-0.5-0.3-1.1-0.5-1.4-0.7c0.2-0.5,0.3-1,0.6-1.4c0.4-0.5,0.9-1.2,1.4-1.2c0.7,0,1.8,0.3,2.3,0.7
			C395.6,615.5,394.9,616.4,393.1,616.7z"/>
		<path class="st1" d="M378,572.8c0.4-0.5,0.6-0.7,0.9-1c0.4,0.3,0.8,0.6,1.1,0.8c-0.3,0.5-0.5,0.9-0.8,1.2
			c-0.4,0.4-0.7,1.1-1.2,1.2c-0.6,0.1-1.7-0.1-2.1-0.4c-0.6-0.6-0.8-1.4-1-2.2c-0.1-0.2,0.5-0.7,0.9-0.8c0.3-0.1,0.9,0.1,1.2,0.3
			C377.4,572.1,377.7,572.5,378,572.8z"/>
		<path class="st3" d="M391.9,525.5c0.8,1.8,0.6,2.3-1.5,2.9c2.2,0.9,0.2,1.8,0.2,2.9c-1.3-0.8-2.2-1.5-1.2-2.7
			c0.1-0.2,0.1-0.5,0-0.7C388.4,526.3,389.4,525.3,391.9,525.5z"/>
		<path class="st3" d="M345.6,523.5c0.4,0.2,0.8,0.4,1.2,0.5c0.2,0.1,0.4,0,0.5,0.1c0.9,1,1.9,2,2.6,3.1c0.5,0.8-0.3,1.2-1.5,1.2
			c-0.7-1.1-1.4-2.3-3.3-2.8c-0.2-0.1-0.3-0.8-0.2-1.2C345.1,524.2,345.4,523.8,345.6,523.5z"/>
		<path class="st3" d="M368,589c-1-0.6-1.9-1.2-1.1-2.4c0.1-0.2-0.4-0.7-0.7-1.1c-0.3-0.3-0.8-0.6-0.9-1.1c0.3,0.2,0.6,0.4,0.9,0.7
			c0.5,0.4,1,0.5,1.7,0.1c0.4-0.2,1.2-0.1,1.8,0c0.3,0.1,0.5,0.5,0.5,0.8c0,0.5-0.2,1-0.5,1.3C369.3,587.9,368.7,588.4,368,589z"/>
		<path class="st2" d="M430.3,494.5c-0.1,1.2-0.2,2.2-0.4,3.3c-0.1,0.5-0.6,0.9-1.1,1.2c-0.9,0.6-2.1,0.2-2-0.7
			c0.1-0.7,0.6-1.5,1.1-2.1C428.4,495.6,429.3,495.2,430.3,494.5z"/>
		<path class="st3" d="M422.5,562.2c-0.8-2.1-0.6-2.8,0.8-3.3c0.5,0.3,1,0.6,1.5,0.8c0.8,0.3,1.3,0.8,1,1.5c-0.3,0.7-1,1.2-2.1,1.1
			C423.3,562.2,422.9,562.2,422.5,562.2z"/>
		<path class="st1" d="M371.4,574.4c0.4,0.4,0.8,0.8,1.3,1.2c-0.1,0-0.2,0.1-0.2,0.1c0.4,0.1,0.9,0.3,1.3,0.4
			c-0.2,0.3-0.3,0.6-0.5,0.9c-0.1,0.2-0.3,0.4-0.5,0.5c-0.5,0.3-1.3,0.8-1.7,0.7c-0.5-0.2-1-0.8-1-1.3c-0.1-0.6,0.2-1.3,0.5-1.9
			C370.5,574.6,371.1,574.5,371.4,574.4L371.4,574.4z"/>
		<path class="st2" d="M394.2,563.8c-0.6-0.8-1.5-1.5,0.1-2.2c0,0,0.1,0,0.1-0.1c0.1-0.4-0.4-1.1,0.7-1c0.2,0,0.2,0.8,0.5,1.1
			c0.7,0.8,0.7,1.4-0.3,2c-0.2,0.1-0.1,0.5-0.1,0.8c0.2,0.9-0.4,1.2-1.5,1.1c-0.9-0.1-1.3-0.4-0.6-1
			C393.4,564.4,393.8,564.1,394.2,563.8z"/>
		<path class="st1" d="M397.1,560.7c-1-1-2-1.6-2.3-2.3c-0.2-0.4,0.7-1.1,1.2-1.7c0-0.1-0.4-0.3-0.4-0.5c0.1-0.3,0.5-0.5,0.7-0.8
			c0.3,0.2,0.9,0.4,1,0.6c0.2,1.2,0.3,2.4,0.4,3.6C397.7,559.8,397.4,560.1,397.1,560.7z"/>
		<path class="st1" d="M373.3,502.2c0.2,0.4,0.3,0.6,0.4,0.8c0.4-0.5,0.8-0.9,1.3-1.5c0.4,0.7,0.8,1.2,1,1.8
			c0.3,0.9-0.6,1.5-1.8,1.4c-0.1,0-0.3-0.2-0.4-0.1c-0.4,0.2-1,0.8-1.3,0.1c-0.3-0.5,0-1.1,0.1-1.6
			C372.7,502.8,373,502.6,373.3,502.2z"/>
		<path class="st1" d="M390.8,609.2c0.6-0.4,1.2-1,1.9-1.2c1-0.2,2.5,0.8,2.3,1.6c-0.1,0.5-0.8,1.1-1.5,1.3
			C392.8,611,391.1,610,390.8,609.2z"/>
		<path class="st3" d="M365.8,568.9c0.6,0.6,1.1,1.3,0.1,1.9c-0.3,0.2-1.3,0.1-1.7-0.1c-1-0.7-0.4-1.4,0.4-2c-0.1,0-0.3-0.1-0.4-0.1
			c0.2-0.5,0.3-1.1,0.6-1.5c0.1-0.2,0.9,0,1.4,0c0,0.6,0,1.2-0.1,1.7C366.1,568.8,365.9,568.8,365.8,568.9z"/>
		<path class="st1" d="M400.5,612.6c0.3,0.9-0.2,1.6-1.5,1.6c-1.3-0.1-1.3-0.9-1.2-1.6c0.1-0.8,0.1-1.6,1.6-1.4
			C400.7,611.2,400.7,611.9,400.5,612.6z"/>
		<path class="st1" d="M382.1,528.2c1.3-1.2,2.3-1.4,5.5,0.6C384.8,529.7,383.1,529.6,382.1,528.2z"/>
		<path class="st1" d="M375.9,617.7c-0.5-0.3-0.9-0.5-1.2-0.7c-0.8-0.5-1.4-1.1-0.7-1.9c0.5-0.6,1.3-0.9,2.2-0.4c1,0.5,1,1.3,0.5,2
			C376.5,617.1,376.2,617.4,375.9,617.7z"/>
		<path class="st1" d="M419.4,498.8c0-0.7-0.1-1.3,1-1.6c0.3-0.1,0.3-0.7,0.5-1c0.2-0.3,0.5-0.8,0.7-0.8c0.6,0.1,1.2,0.3,1.6,0.6
			c0.1,0.1-0.1,0.6-0.3,0.9c-0.5,0.5-1,1-1.7,1.4C420.7,498.5,419.9,498.6,419.4,498.8L419.4,498.8z"/>
		<path class="st1" d="M395.5,532.1c-1.4-0.2-2.4-0.4-3.4-0.5c-0.5-0.9,0.1-1.7,1-2c0.7-0.2,2,0.1,2.6,0.6
			C396,530.5,395.6,531.4,395.5,532.1z"/>
		<path class="st2" d="M398.6,586.5c0,1.1-0.9,1.9-1.9,1.9c-1.1,0-1.5-0.6-1.5-1.3c0-0.7,1.2-1.6,2.3-1.4
			C398.1,585.7,398.4,586.3,398.6,586.5z"/>
		<path class="st3" d="M404.3,637.3c-0.7-0.4-1.3-0.6-1.5-0.8c-0.2-0.2-0.1-0.7,0.1-0.9c0.7-0.9,1.4-1.7,2.2-2.5
			c0.1-0.2,0.4-0.3,0.6-0.3c0.1,0,0.4,0.3,0.4,0.4c-0.2,0.7-0.5,1.3-0.8,1.9c-0.1,0.2,0,0.5-0.2,0.7
			C404.9,636.3,404.6,636.7,404.3,637.3z"/>
		<path class="st1" d="M369.6,561.8c-0.5,0.3-1,0.7-1.5,0.8c-0.4,0-1-0.3-1.4-0.6c-0.5-0.4-0.8-0.9-1.1-1.4c-0.2-0.3-0.1-0.7-0.1-1
			c0.4,0.1,0.8,0.2,1.2,0.3c0.4,0.1,0.7,0.3,1.1,0.4C368.9,560.3,369.4,560.8,369.6,561.8z"/>
		<path class="st1" d="M425.9,569.2c0.6-0.3,1.2-0.9,1.9-1c1-0.2,1.8,0.3,1.8,1.1c0,0.8-0.5,1.4-1.7,1.5
			C427,570.9,426.2,570.2,425.9,569.2z"/>
		<path class="st3" d="M394.5,545.4c-0.4-0.4-0.7-0.6-0.7-0.8c0-0.4,0.1-0.8,0.3-1.1c0.1-0.1,0.9-0.2,1-0.1c0.3,0.3,0.5,0.7,0.5,1.1
			c0.1,0.4-0.2,0.8-0.1,1.1c0,0.7-1.3,1.4-2.2,1.3c-0.6-0.1-1.3,0-2.2,0c0.3-0.2,0.6-0.5,0.9-0.7C392.9,546,393.7,545.7,394.5,545.4
			z"/>
		<path class="st1" d="M343,641.5c0.4-0.2,1-0.7,1.7-0.8c0.9-0.1,1.7,0.4,1.7,1.1c0,0.8-0.6,1.3-1.7,1.3
			C343.6,643.2,343.1,642.7,343,641.5z"/>
		<path class="st1" d="M409,611.7c-1,0.6-1.6,1.2-2.2,1.3c-1,0.1-1.8-0.5-1.7-1.3c0-0.7,0.8-1.3,1.7-1.2
			C407.4,610.7,408,611.2,409,611.7z"/>
		<path class="st2" d="M350.9,636.9c0.6-0.3,1.2-0.9,1.8-1c1-0.1,1.6,0.6,1.6,1.3c0,0.7-0.6,1.3-1.6,1.2c-0.6-0.1-1.2-0.6-1.8-0.9
			C350.9,637.2,350.9,637,350.9,636.9z"/>
		<path class="st1" d="M372.2,494.5c0.1,0.2,0.2,0.4,0.4,0.6c0.2-0.2,0.3-0.3,0.4-0.5c0.1,0.1,0.2,0.2,0.2,0.3c0,0.9,0,1.9-0.2,2.8
			c-0.1,0.3-0.8,0.5-1.2,0.8c-0.2-0.3-0.7-0.7-0.6-1c0.1-1,0.4-2,0.7-3.1C372,494.5,372.1,494.5,372.2,494.5z"/>
		<path class="st3" d="M359.1,581.9c0.4-0.4,0.6-0.7,1-1.2c0.8,0.3,1.6,0.6,2.3,0.9c0.9,0.4,0.6,1.1,0,1.5c-0.3,0.2-1.2,0-1.7-0.2
			C360.1,582.8,359.7,582.3,359.1,581.9z"/>
		<path class="st1" d="M342.7,619.6c-1.1,0.7-2.1,1.4-3.1,2c-1.1-1.1-0.7-2,1.3-3.1C341.5,618.9,342,619.2,342.7,619.6z"/>
		<path class="st1" d="M404.4,624.4c0.8-0.4,1.4-0.9,1.9-0.8c0.5,0.1,1.4,0.8,1.3,1c-0.3,0.7-1,1.2-1.6,1.8
			C405.5,625.8,405,625.2,404.4,624.4z"/>
		<path class="st1" d="M437.2,554.5c-0.9-1-1.1-1.7-0.2-2.1c0.4-0.2,1.3-0.3,1.7-0.1c0.4,0.2,0.9,1.1,0.8,1.2
			C438.8,553.8,438,554.1,437.2,554.5z"/>
		<path class="st3" d="M351.4,602.9c-0.6,0.3-1.1,0.8-1.8,0.9c-0.9,0.2-1.5-0.3-1.5-1c0-0.7,0.5-1.4,1.6-1.3
			c0.6,0.1,1.1,0.6,1.7,0.9C351.4,602.6,351.4,602.8,351.4,602.9z"/>
		<path class="st1" d="M384.9,549.2c0.4-0.3,1.1-0.9,1.2-0.8c0.7,0.3,1.6,0.7,1.8,1.3c0.3,0.7-0.5,1.1-1.5,1.1
			C385.3,550.8,385,550.2,384.9,549.2z"/>
		<path class="st1" d="M403.5,565.4c-1.1,0.5-1.7,1-2.4,1.1c-0.9,0.1-1.6-0.5-1.3-1.1c0.2-0.5,1-0.9,1.7-1.1
			C401.9,564.3,402.5,564.8,403.5,565.4z"/>
		<path class="st1" d="M387.7,538.2c-1.3-1.2-1.5-2.1-0.6-2.4c0.6-0.2,1.6-0.1,2,0.1C389.9,536.4,389.2,537.5,387.7,538.2z"/>
		<path class="st1" d="M431.4,509.4c-0.3,0.7-0.5,1.4-1,2c-0.2,0.3-1,0.3-1.6,0.5c-0.1-0.4-0.5-0.9-0.3-1.1c0.6-0.6,1.5-1.1,2.3-1.6
			C431.1,509.2,431.2,509.3,431.4,509.4z"/>
		<path class="st1" d="M350.3,631c-0.7,0.5-1.3,1.2-1.6,1.1c-0.7-0.2-1.3-0.7-1.9-1.1c0.7-0.4,1.3-0.8,2-1
			C349,630,349.6,630.5,350.3,631z"/>
		<path class="st1" d="M383.8,575.6c0.3,0.4,0.8,0.8,0.8,1.2c0,0.9-0.9,1.1-1.9,1.2c-0.3,0-1-0.5-0.9-0.6c0.4-0.6,0.8-1.2,1.3-1.9
			C383.3,575.5,383.5,575.6,383.8,575.6z"/>
		<path class="st1" d="M389.7,494.6c0.9-0.5,1.5-1.1,1.9-1c0.6,0.1,1.3,0.6,1.4,1c0.3,0.7-0.5,1.2-1.3,1.1
			C391.2,495.6,390.7,495.1,389.7,494.6z"/>
		<path class="st1" d="M366.9,564.4c-0.2,0.7-0.3,1.1-0.5,1.5c-0.1,0.2-0.9,0.3-0.9,0.3c-0.4-0.7-0.9-1.4-1.2-2.1
			c0-0.1,0.9-0.6,1.2-0.5C366.1,563.7,366.6,564.1,366.9,564.4z"/>
		<path class="st1" d="M427.3,582.3c0.4,0.4,1,0.7,1.1,1.2c0.2,0.7-0.6,1.2-1.4,1c-0.5-0.1-1.3-0.6-1.4-0.9c0-0.4,0.6-0.9,1-1.3
			C426.9,582.3,427.1,582.3,427.3,582.3z"/>
		<path class="st3" d="M386.2,521.5c-0.3-0.4-1-0.9-0.9-1.2c0.1-0.4,0.8-0.7,1.2-1.1c0.5,0.4,1.3,0.7,1.4,1.1
			c0.1,0.4-0.7,0.8-1.1,1.3C386.6,521.5,386.4,521.5,386.2,521.5z"/>
		<path class="st3" d="M447.7,503.2c-0.2-0.3-0.5-0.6-0.4-0.8c0.3-0.6,0.7-1.2,1.2-1.7c0.3-0.2,0.9-0.2,1.4-0.3c0,0.3,0.2,0.7,0,1
			c-0.5,0.7-1.1,1.3-1.7,1.9C448,503.2,447.9,503.2,447.7,503.2z"/>
		<path class="st1" d="M373,592.3c0.9-0.5,1.5-1.1,2-1c0.4,0,1.1,0.7,1.1,1.1c0,0.4-0.7,1-1.2,1C374.5,593.4,373.9,592.8,373,592.3z
			"/>
		<path class="st1" d="M398.2,639c0.8-0.5,1.3-0.9,1.8-1.2c0.4,0.4,1.2,0.7,1.2,1.1c0.1,0.7-0.5,1.2-1.5,1.1
			C399.4,639.9,399,639.4,398.2,639z"/>
		<path class="st1" d="M411.4,507c-0.1,0.7-0.2,1.4-0.5,2c-0.1,0.3-0.9,0.4-1.3,0.6c-0.2-0.4-0.6-0.9-0.4-1.2
			c0.4-0.6,1.1-1.1,1.6-1.6C411,506.9,411.2,506.9,411.4,507z"/>
		<path class="st1" d="M353.7,617.5c0.4-0.5,0.5-1,0.9-1.2c0.3-0.3,0.9-0.5,1.4-0.5c0.3,0,0.9,0.7,0.8,0.8c-0.5,0.5-1.2,1-1.9,1.3
			C354.7,618,354,617.6,353.7,617.5z"/>
		<path class="st1" d="M366.8,572.9c0.8,0.6,1.4,1,2,1.5c-0.7,0.2-1.4,0.6-2.2,0.7c-0.4,0-1-0.6-1.1-1
			C365.5,573.7,366.3,573.4,366.8,572.9z"/>
		<path class="st1" d="M358.5,604.4c-0.5,0.3-1.1,0.8-1.6,0.7c-0.5-0.1-0.9-0.6-1.4-1c0.5-0.3,0.9-0.9,1.4-0.9c0.5,0,1,0.5,1.6,0.8
			C358.5,604,358.5,604.2,358.5,604.4z"/>
		<path class="st1" d="M375.8,524.8c-0.2-1.2-0.4-2.4-0.6-3.8c-0.4,0.5-0.7,0.8-1.1,1.3c-0.2-0.4-0.5-0.7-0.4-0.8
			c0.7-0.6,1.4-1.2,2.1-1.8c0.2,1.8,0.4,3.5,0.6,5.1C376.1,524.7,375.9,524.8,375.8,524.8z"/>
		<path class="st1" d="M374.4,587.1c-0.8,0.5-1.4,1.1-1.7,1c-0.5-0.1-1.2-0.7-1.2-1c0-0.4,0.7-0.9,1.3-1
			C373.1,586,373.6,586.6,374.4,587.1z"/>
		<path class="st1" d="M397,621.5c-1,0.5-1.5,1-2.1,1.1c-0.3,0-1.1-0.5-1.1-0.8c-0.1-0.6,0.4-1.2,1.4-1.1
			C395.7,620.7,396.1,621.1,397,621.5z"/>
		<path class="st1" d="M411.8,635.8c-0.5,0.3-1.1,0.8-1.5,0.8c-0.5,0-1.2-0.6-1.3-1c-0.1-0.2,0.7-0.9,1.2-0.9c0.5,0,1.1,0.4,1.6,0.7
			C411.7,635.5,411.7,635.7,411.8,635.8z"/>
		<path class="st2" d="M341.5,612.1c-0.6-0.5-1.3-1-1.2-1.2c0.3-0.4,0.9-0.8,1.4-1.1c0.4,0.4,1.1,0.7,1.2,1.2
			C343,611.2,342.2,611.6,341.5,612.1z"/>
		<path class="st1" d="M414.4,505.5c-0.3,0.7-0.6,1.5-1,2.2c-0.1,0.2-0.7,0.3-1,0.5c-0.2-0.3-0.5-0.7-0.4-0.9
			c0.3-0.6,0.7-1.2,1.1-1.7c0.2-0.2,0.7-0.2,1-0.4C414.3,505.4,414.4,505.5,414.4,505.5z"/>
		<path class="st1" d="M359.8,539.8c-0.7,0.5-1.2,0.9-1.7,1.3c-0.4-0.4-1-0.8-1-1.1c0-0.4,0.7-0.7,1.1-1.1
			C358.7,539.1,359.1,539.4,359.8,539.8z"/>
		<path class="st1" d="M362.6,593.6c0.4-0.2,1-0.6,1.2-0.6c0.6,0.2,1.1,0.7,1.4,1.1c0.1,0.1-0.8,0.8-1.1,0.8
			c-0.6-0.1-1.1-0.6-1.6-0.9C362.6,593.9,362.6,593.8,362.6,593.6z"/>
		<path class="st3" d="M447.2,499.9c-0.4,0.6-0.7,1.3-1.2,1.8c-0.3,0.3-1,0.2-1.5,0.3c0-0.4-0.1-0.9,0.1-1.2
			c0.6-0.5,1.4-0.8,2.1-1.2C446.9,499.7,447,499.8,447.2,499.9z"/>
		<path class="st1" d="M389.8,553.7c0.4,0.2,0.6,0.2,0.7,0.3c0.1,0.3,0.2,0.6,0,0.8c-0.5,0.5-1.2,1-1.8,1.5
			c-0.3-0.2-0.8-0.6-0.8-0.7C388.5,555,389.1,554.4,389.8,553.7z"/>
		<path class="st1" d="M395.1,600.3c0.6,0.6,1.2,1,1.2,1.4c0,0.3-0.8,0.6-1.3,0.9c-0.4-0.4-1-0.7-1-1.1
			C393.9,601.2,394.6,600.9,395.1,600.3z"/>
		<path class="st1" d="M388.8,532.6c0.6,0.6,1.2,1,1.2,1.4c0,0.3-0.8,0.9-1.1,0.9c-0.5-0.1-1.2-0.5-1.3-0.8
			C387.6,533.6,388.2,533.2,388.8,532.6z"/>
		<path class="st1" d="M385,534.3c-0.9,0.4-1.5,0.8-2,0.9c-0.3,0-1-0.7-0.9-0.9c0.2-0.4,0.8-0.8,1.3-0.9
			C383.7,533.3,384.2,533.8,385,534.3z"/>
		<path class="st1" d="M419.3,567.6c0.3,0.4,0.9,0.7,0.9,1.1c0,0.3-0.7,0.6-1.1,0.9c-0.4-0.3-1-0.6-1.1-0.9c-0.1-0.3,0.4-0.7,0.7-1
			C418.9,567.6,419.1,567.6,419.3,567.6z"/>
		<path class="st1" d="M385.9,608.5c-0.9,0.4-1.4,0.9-1.9,0.9c-0.4,0-1.1-0.6-1.1-0.9c0-0.4,0.7-0.9,1.1-1
			C384.5,607.6,385,608.1,385.9,608.5z"/>
		<path class="st1" d="M436.8,510.2c-1.1,1.4-3.3,1-4.8,1.9C432.4,510.9,435.4,509.8,436.8,510.2z"/>
		<path class="st1" d="M375.2,505.2c0.1,1,0.3,1.7,0.3,2.3c0,0.3-0.6,0.5-1,0.7c-0.2-0.3-0.6-0.6-0.6-0.8
			C373.9,506.6,374.1,505.9,375.2,505.2z"/>
		<path class="st1" d="M426.5,587.5c-1.1,0.3-2.1,1-2.9,0c-0.2-0.2,0.1-0.9,0.5-1.1C425.5,585.7,425.7,586.9,426.5,587.5z"/>
		<path class="st3" d="M354.1,628.2c0.6,0.5,1.2,0.9,1.1,1c-0.3,0.6-0.9,1.1-1.3,1.6c-0.3-0.5-0.7-0.9-0.7-1.4
			C353.2,629.1,353.7,628.7,354.1,628.2z"/>
		<path class="st1" d="M376.2,515.7c0,0.7,0.1,1.3,0,2c0,0.2-0.6,0.3-0.9,0.5c-0.2-0.3-0.6-0.5-0.6-0.8c0.1-0.6,0.4-1.2,0.7-1.8
			C375.6,515.6,375.9,515.6,376.2,515.7z"/>
		<path class="st1" d="M342.4,604.5c-0.8,0.4-1.3,0.9-1.7,0.8c-0.4-0.1-1-0.5-1-0.9c0-0.2,0.7-0.7,1-0.7
			C341.1,603.7,341.5,604.1,342.4,604.5z"/>
		<path class="st1" d="M363.6,551.7c0-0.1,0.2-0.3,0.5-0.5c0.2-0.1,0.7-0.1,0.9,0c0.2,0.2,0.3,0.5,0.3,0.8c0,0.2-0.1,0.4-0.2,0.6
			c-0.1,0.3-0.2,0.6-0.3,0.9c-0.3-0.3-0.7-0.6-1-0.9C363.6,552.5,363.6,552.2,363.6,551.7z"/>
		<path class="st1" d="M398.7,617.8c0-0.1-0.1-0.4,0-0.7c0.1-0.2,0.4-0.6,0.6-0.6c0.3,0,0.8,0.1,1.1,0.3c0.3,0.2,0.5,0.6,0.7,0.9
			c0.1,0.1,0.1,0.4-0.1,0.5c-0.1,0.1-0.4,0.1-0.6,0.1C399.9,618.1,399.4,618,398.7,617.8z"/>
		<path class="st1" d="M434.4,537.1c-0.6-0.4-0.9-0.7-1.3-1c0.5-0.3,0.9-0.8,1.4-0.9c0.3,0,0.8,0.5,1.2,0.8
			C435.4,536.3,435,536.6,434.4,537.1z"/>
		<path class="st1" d="M381.9,656c-0.6,0.4-1,0.7-1.4,1c-0.3-0.4-0.8-0.7-0.8-1.1c0-0.3,0.6-0.6,0.9-0.9
			C380.9,655.3,381.3,655.6,381.9,656z"/>
		<path class="st1" d="M359.8,586.6c0.6,0.5,1.2,0.8,1.2,1.1c0,0.3-0.7,0.7-1.2,0.8c-0.3,0-1-0.5-1-0.8
			C358.8,587.5,359.3,587.1,359.8,586.6z"/>
		<path class="st1" d="M443.8,566.3c0.5,0.5,1.1,0.9,1,1c-0.2,0.4-0.7,0.6-1.1,0.9c-0.3-0.3-1-0.6-1-0.8
			C442.7,567.1,443.3,566.8,443.8,566.3z"/>
		<path class="st1" d="M433.6,560.2c-0.4-0.6-0.8-1-1-1.4c-0.1-0.3,0.1-0.7,0.3-0.8c0.2-0.1,0.8-0.2,1,0c0.3,0.2,0.5,0.6,0.4,0.8
			C434.3,559.1,434,559.5,433.6,560.2z"/>
		<path class="st1" d="M408.7,627.7c-0.5,0.3-0.9,0.6-1,0.6c-0.7-0.4-1.3-0.8-2-1.2c0.4-0.2,1-0.7,1.1-0.6
			C407.5,626.8,408,627.3,408.7,627.7z"/>
		<path class="st1" d="M423.9,637.5c1.1-0.9,2.2-1.9,3.3-2.8c0.1,0.1,0.3,0.2,0.4,0.3C427,636.3,425.4,636.9,423.9,637.5z"/>
		<path class="st1" d="M402,628.4c-0.5-0.6-1-1-0.9-1.3c0.1-0.3,0.7-0.5,1.1-0.8c0.3,0.3,0.9,0.6,1,0.9
			C403.2,627.5,402.6,627.8,402,628.4z"/>
		<path class="st1" d="M358.2,552c-0.6,0.3-1.1,0.7-1.7,1c-0.4-0.4-0.8-0.8-1.2-1.3c0.1-0.1,0.2-0.2,0.4-0.4
			c0.7,0.1,1.5,0.1,2.2,0.2C358,551.7,358.1,551.9,358.2,552z"/>
		<path class="st1" d="M363.2,629.1c-0.8,0.4-1.3,0.8-1.6,0.8c-0.5-0.1-0.8-0.5-1.2-0.8c0.4-0.3,0.8-0.7,1.2-0.7
			C362,628.3,362.4,628.7,363.2,629.1z"/>
		<path class="st1" d="M375.8,570.6c-0.5,0.4-0.9,0.6-1.2,0.9c-0.4-0.3-0.9-0.7-1-1c0-0.3,0.6-0.6,0.9-0.9
			C374.9,569.8,375.3,570.2,375.8,570.6z"/>
		<path class="st1" d="M440.8,573.8c-0.8,0.4-1.2,0.8-1.6,0.8c-0.4,0-1-0.5-1-0.8c0-0.3,0.6-0.8,1-0.8
			C439.5,573,440,573.4,440.8,573.8z"/>
		<path class="st1" d="M377.2,576c-0.8,0.4-1.2,0.8-1.7,0.9c-0.2,0-0.9-0.6-0.9-0.7c0.1-0.4,0.6-0.8,1.1-0.9
			C376,575.1,376.5,575.6,377.2,576z"/>
		<path class="st1" d="M392.7,593.4c-0.8,0.4-1.3,0.8-1.7,0.7c-0.4-0.1-1-0.5-1-0.8c0-0.3,0.6-0.8,1-0.8
			C391.4,592.6,391.8,593,392.7,593.4z"/>
		<path class="st3" d="M437.9,596.6c-0.8,0.4-1.3,0.8-1.7,0.8c-0.4,0-0.8-0.5-1.1-0.7c0.4-0.3,0.7-0.7,1.1-0.8
			C436.6,595.9,437.1,596.3,437.9,596.6z"/>
		<path class="st1" d="M444,595.6c0.7,0.5,1.9,0.7,1.3,1.6c-0.1,0.2-0.9,0.4-1.2,0.3C442.7,597,443.8,596.3,444,595.6z"/>
		<path class="st1" d="M342.4,531c1.1,0.9,1.9,1.6,2.9,2.4C343.7,533.7,342.5,532.7,342.4,531z"/>
		<path class="st1" d="M357.8,523.7c0.5-0.5,0.9-0.9,1.4-1.4c0.2,0,0.3,0.1,0.5,0.1c0.2,0.6,0.4,1.1,0.7,1.9
			c-1.1-0.2-1.7-0.3-2.4-0.4C357.9,523.8,357.9,523.7,357.8,523.7z"/>
		<path class="st1" d="M372.5,518.9c0.9,0.7,1.3,1.3,0.5,2c-0.2,0.1-0.9,0.2-1,0.1C371.3,520.2,371.7,519.6,372.5,518.9z"/>
		<path class="st3" d="M379.6,581.4c0.5,0.6,1,1,0.9,1.3c-0.1,0.3-0.7,0.6-1,0.9c-0.3-0.3-0.9-0.6-1-0.9
			C378.5,582.4,379,582.1,379.6,581.4z"/>
		<path class="st1" d="M392.9,580.9c1-0.5,2-0.3,2.9,0.5C394.9,582.5,394.8,582.5,392.9,580.9z"/>
		<path class="st1" d="M441.6,509c-0.2,0.5-0.2,1-0.6,1.5c-0.2,0.2-0.9,0.2-1.3,0.3c0-0.4-0.2-0.8,0-1c0.4-0.4,1-0.6,1.5-0.9
			C441.4,508.9,441.5,508.9,441.6,509z"/>
		<path class="st1" d="M366.7,521.8c0-0.2-0.1-0.6,0.1-0.7c0.4-0.2,1-0.3,1.5-0.5c0.1,0.4,0.3,0.9,0.1,1.2c-0.1,0.2-0.8,0.2-1.3,0.3
			C367,522,366.9,521.9,366.7,521.8L366.7,521.8z"/>
		<path class="st1" d="M418.4,624.7c1-0.9,2.1-1.8,3.1-2.7c0.2,0.1,0.3,0.2,0.5,0.3c-0.8,1.1-2,1.9-3.4,2.5
			C418.5,624.8,418.4,624.8,418.4,624.7z"/>
		<path class="st1" d="M415.5,633.3c-0.8,0.4-1.2,0.8-1.7,0.7c-0.4,0-1-0.5-1-0.7c0.1-0.3,0.6-0.8,1-0.8
			C414.2,632.5,414.7,632.9,415.5,633.3z"/>
		<path class="st1" d="M404.4,584.1c-0.5,0.5-0.8,1.4-2,0.9c-0.3-0.1-0.2-0.7-0.3-1c0.7-0.1,1.5-0.2,2.2-0.3
			C404.3,583.9,404.3,584,404.4,584.1z"/>
		<path class="st1" d="M438.9,561.9c0.3,0.3,0.6,0.5,0.8,0.7c-0.6,0.4-1.2,0.7-1.9,1c-0.1,0-0.5-0.3-0.7-0.5
			C437.7,562.8,438.2,562.4,438.9,561.9z"/>
		<path class="st1" d="M419.4,574.3c0.9-0.1,1.9-0.3,2.2,0.6c0.1,0.2-0.5,0.5-0.7,0.8c-0.6-0.3-1.2-0.7-1.8-1
			C419.2,574.6,419.3,574.5,419.4,574.3z"/>
		<path class="st1" d="M365.8,629.5c-0.7,0.4-1.1,0.8-1.4,0.7c-0.4-0.1-0.8-0.5-1.2-0.8c0.4-0.2,0.8-0.6,1.2-0.7
			C364.7,628.7,365.2,629.1,365.8,629.5z"/>
		<path class="st1" d="M444.4,497.9c-0.2,0.5-0.3,1.1-0.6,1.5c-0.2,0.3-0.8,0.3-1.3,0.5c0-0.4-0.2-0.8,0.1-1c0.4-0.4,1-0.7,1.5-1.1
			C444.2,497.8,444.3,497.8,444.4,497.9z"/>
		<path class="st1" d="M432.6,519.1c1.1-1.2,2.1-2.3,3.2-3.6C435.8,516.7,433.9,518.8,432.6,519.1z"/>
		<path class="st1" d="M372.3,623.5c-0.4-0.6-0.9-0.9-0.9-1.2c0.1-0.3,0.7-0.6,1-0.8c0.3,0.3,0.9,0.5,0.9,0.8
			C373.4,622.6,372.9,622.9,372.3,623.5z"/>
		<path class="st1" d="M357.8,646.9c-1.2-0.2-1.5-0.7-1-1.4c0.2-0.2,1.1-0.4,1.2-0.3C358.9,645.8,358.5,646.3,357.8,646.9z"/>
		<path class="st1" d="M350,608.9c-0.9,0.3-1.5,0.6-2.1,0.8c-0.2-0.3-0.7-0.8-0.5-1C348,607.9,348.8,608.3,350,608.9z"/>
		<path class="st1" d="M389.1,557.6c0.3,0.4,0.6,0.8,0.6,0.8c-0.5,0.4-1.1,0.7-1.6,1.1c-0.2-0.2-0.7-0.6-0.7-0.6
			C387.8,558.5,388.4,558.1,389.1,557.6z"/>
		<path class="st1" d="M352.2,518.1c-0.6-0.6-1-0.9-1.3-1.4c0-0.1,0.6-0.5,0.6-0.5c0.5,0.3,1,0.6,1.4,0.9
			C353,517.2,352.6,517.6,352.2,518.1z"/>
		<path class="st1" d="M448.9,490.6c0.5-0.8,1-1.5,1.5-2.2c0.1-0.1,0.6-0.2,0.6-0.1c0.1,0.1,0.3,0.4,0.2,0.5c-0.6,0.7-1.3,1.3-1.9,2
			C449.2,490.7,449.1,490.6,448.9,490.6z"/>
		<path class="st1" d="M383.6,551.5c0.4-0.5,0.7-0.8,1-1.1c0.3,0.3,0.7,0.6,0.7,1c0,0.3-0.5,0.6-0.7,1
			C384.3,552.1,384,551.8,383.6,551.5z"/>
		<path class="st1" d="M392.3,547.4c0.2,0.7,0.4,1.1,0.4,1.4c0,0.3-0.1,0.6-0.3,0.7c-0.2,0.1-0.8,0-1-0.1c-0.2-0.2-0.4-0.6-0.2-0.8
			C391.3,548.3,391.8,547.9,392.3,547.4z"/>
		<path class="st3" d="M401.4,514.8c0.4,0.1,0.9,0.1,1.1,0.3c0.2,0.2,0.4,0.6,0.3,0.9c-0.1,0.2-0.7,0.5-1,0.4
			c-0.4-0.1-0.8-0.4-0.8-0.7C400.9,515.4,401.3,515.1,401.4,514.8L401.4,514.8z"/>
		<path class="st1" d="M452,503.7c-0.4-0.9,0.3-1.7,1.4-1.7c0.2,0,0.5,0.5,0.4,0.6c-0.2,0.3-0.5,0.5-0.9,0.7
			C452.7,503.4,452.3,503.5,452,503.7z"/>
		<path class="st1" d="M338.4,595.6c-0.6,0.4-1,0.7-1.5,1c-0.2-0.2-0.7-0.5-0.7-0.6c0.2-0.4,0.6-0.7,1-1
			C337.4,595,337.9,595.3,338.4,595.6z"/>
		<path class="st1" d="M418.6,624.9c-1,0.9-2.1,1.7-3.1,2.6c-0.1-0.1-0.3-0.2-0.4-0.3c0.6-1.1,2.1-1.7,3.4-2.4
			C418.4,624.8,418.5,624.8,418.6,624.9z"/>
		<path class="st1" d="M371.7,508c0.3-0.4,0.5-0.7,0.8-1.1c0.2,0,0.4,0,0.6,0c0,0.6,0.1,1.2,0,1.7c0,0.1-0.4,0.2-0.6,0.4
			C372.2,508.7,372,508.4,371.7,508L371.7,508z"/>
		<path class="st1" d="M394,576.5c0.5,0.4,1,0.7,0.9,0.9c-0.1,0.3-0.6,0.5-0.9,0.8c-0.3-0.3-0.8-0.5-0.9-0.8
			C393,577.2,393.5,576.9,394,576.5z"/>
		<path class="st1" d="M367.1,610.1c0.4,0.5,0.9,0.8,0.8,1c-0.1,0.3-0.6,0.6-0.9,0.8c-0.3-0.2-0.9-0.5-0.8-0.7
			C366.2,610.9,366.6,610.6,367.1,610.1z"/>
		<path class="st1" d="M359.5,516c0.6,0.4,1.3,0.7,1.9,1.2c0.3,0.2,0.3,0.6,0.5,1.2C359.7,517.3,359,516.4,359.5,516z"/>
		<path class="st1" d="M369.6,518c0.8,1.1,0.8,1.4-1,2.1c0.2-0.9,0.3-1.5,0.4-2.1C369.2,518,369.4,518,369.6,518z"/>
		<path class="st1" d="M395.5,605.8c-0.4-0.6-0.8-0.9-0.8-1.2c0-0.3,0.5-0.5,0.8-0.8c0.3,0.3,0.9,0.5,0.9,0.8
			C396.4,604.9,395.9,605.2,395.5,605.8z"/>
		<path class="st1" d="M425.9,629.5c0.4,0.5,0.9,0.8,0.8,1.1c-0.1,0.3-0.6,0.5-1,0.7c-0.3-0.2-0.8-0.5-0.8-0.7
			C425,630.3,425.4,630,425.9,629.5z"/>
		<path class="st1" d="M430.2,500.2c0.9-0.5,1.5-0.8,2.1-1c0.2,0.1,0.3,0.1,0.5,0.2c-0.3,0.4-0.5,0.9-0.9,1.3
			C431.6,500.7,430.9,500.4,430.2,500.2z"/>
		<path class="st1" d="M377,594.7c0.1-0.5,0.2-1.1,0.3-1.6c0.3,0,1,0.1,1,0.1c-0.1,0.5-0.2,1.1-0.3,1.6
			C377.6,594.8,377.3,594.8,377,594.7z"/>
		<path class="st1" d="M451.9,491.1c0.5-0.6,0.9-1.3,1.4-1.9c0.1-0.1,0.5-0.1,0.7-0.1c0,0.2,0.2,0.5,0,0.6c-0.6,0.5-1.3,1-1.9,1.5
			C452.1,491.2,452,491.1,451.9,491.1z"/>
		<path class="st1" d="M367.9,609.5c-0.8-0.5-0.9-1.1-0.2-1.6c0.2-0.1,0.9,0,1,0.1C369.1,608.7,368.8,609.2,367.9,609.5z"/>
		<path class="st1" d="M420.2,572.6c-0.2,0.5-0.3,0.8-0.4,1c-0.7,0.4-1.7-0.2-1.8-1.1C418.7,572.6,419.3,572.6,420.2,572.6z"/>
		<path class="st1" d="M366.3,556.6c0.6,0.6,1,1.1,1.5,1.6c0,0-0.4,0.3-0.5,0.3c-0.6-0.4-1.1-0.7-1.6-1.2
			C365.7,557.3,366,556.9,366.3,556.6z"/>
		<path class="st1" d="M395.3,625.7c-0.6,0.3-0.9,0.7-1.3,0.7c-0.3,0-0.9-0.4-0.9-0.6c0-0.2,0.5-0.6,0.8-0.7
			C394.3,625.1,394.7,625.4,395.3,625.7z"/>
		<path class="st1" d="M348.4,572.8c0.6,0,1.1,0,1.7,0.1c-0.1,0.3-0.2,0.6-0.3,0.9c-0.5-0.1-1-0.3-1.5-0.4
			C348.3,573.2,348.3,573,348.4,572.8z"/>
		<path class="st2" d="M350.4,593.1c0.6-0.4,1-0.8,1.2-0.7c0.4,0.1,0.8,0.5,1,0.8c0.1,0.1-0.5,0.6-0.7,0.6
			C351.4,593.7,351.1,593.4,350.4,593.1z"/>
		<path class="st1" d="M393.9,589.8c-0.6,0.3-1,0.6-1.3,0.6c-0.3,0-0.9-0.4-0.8-0.6c0-0.2,0.5-0.6,0.9-0.6
			C392.9,589.1,393.3,589.4,393.9,589.8z"/>
		<path class="st1" d="M381,538.1c-0.4-0.7-0.7-1.3-1-1.9c0,0,0.3-0.1,0.4-0.2c0.5,0.5,0.9,1.1,1.4,1.6
			C381.8,537.7,381.5,537.8,381,538.1z"/>
		<path class="st1" d="M356.3,612.9c0.3,0.4,0.7,0.7,0.7,1c0,0.2-0.7,0.6-0.8,0.5c-0.4-0.1-0.7-0.4-0.8-0.7
			C355.3,613.5,355.8,613.3,356.3,612.9z"/>
		<path class="st1" d="M414.7,601.2c-0.5,0.2-1,0.5-1.2,0.5c-0.3-0.1-0.5-0.5-0.8-0.7c0.4-0.2,0.7-0.5,1.1-0.5
			C414,600.4,414.3,600.8,414.7,601.2z"/>
		<path class="st3" d="M352.1,573.6c0.4,0.4,0.8,0.7,0.8,1c-0.1,0.3-0.6,0.5-0.9,0.7c-0.3-0.2-0.8-0.5-0.8-0.7
			C351.2,574.2,351.6,574,352.1,573.6z"/>
		<path class="st1" d="M422.2,577.2c-0.4,0.5-0.8,1-0.9,1c-0.6-0.2-1.1-0.5-1.6-0.7c0-0.1,0.1-0.2,0.1-0.3
			C420.5,577.2,421.2,577.2,422.2,577.2z"/>
		<path class="st1" d="M348.3,625.8c-0.5,0.3-0.9,0.5-1.3,0.7c-0.2-0.3-0.6-0.6-0.6-0.8c0.1-0.3,0.6-0.5,0.9-0.8
			C347.6,625.2,347.9,625.4,348.3,625.8z"/>
		<path class="st1" d="M342.9,519.8c0.5,0.3,1,0.5,1.5,0.8c0,0-0.4,0.4-0.5,0.6c-0.5-0.3-1-0.6-1.4-0.9
			C342.6,520.1,342.7,519.9,342.9,519.8z"/>
		<path class="st1" d="M402.3,588.6c0.4,0.4,0.8,0.7,0.8,1c0,0.2-0.6,0.6-0.8,0.6c-0.4-0.1-0.8-0.4-0.8-0.7
			C401.4,589.2,401.9,589,402.3,588.6z"/>
		<path class="st1" d="M400.6,609.3c-0.4-0.5-0.7-0.8-0.7-1c0-0.2,0.5-0.4,0.7-0.6c0.3,0.2,0.8,0.4,0.8,0.7
			C401.5,608.5,401.1,608.8,400.6,609.3z"/>
		<path class="st1" d="M370.3,504.3c-0.7,0.6-1.1,0.4-1.2-0.3c0-0.4,0.3-0.8,0.4-1.2c0.2,0,0.4,0,0.6,0
			C370.2,503.3,370.2,503.8,370.3,504.3L370.3,504.3z"/>
		<path class="st1" d="M352.1,550.7c0.4,0.2,0.6,0.4,0.8,0.5c-0.4,0.3-0.9,0.6-1.4,0.8c-0.1,0-0.5-0.4-0.8-0.6
			C351.2,551.2,351.6,551,352.1,550.7z"/>
		<path class="st1" d="M342.9,525.9c0.4,0.3,0.9,0.7,1.2,1.1c0.2,0.2,0,0.6,0,0.9c-0.4-0.2-0.9-0.3-1.1-0.5
			c-0.2-0.4-0.2-0.9-0.3-1.3C342.7,525.9,342.8,525.9,342.9,525.9z"/>
		<path class="st1" d="M349.3,633.1c0.4,0.4,0.8,0.7,0.7,0.9c-0.1,0.3-0.6,0.5-0.9,0.6c-0.2,0-0.8-0.4-0.7-0.6
			C348.4,633.7,348.8,633.5,349.3,633.1z"/>
		<path class="st1" d="M396.7,549.1c-0.8,0.2-1.3,0.3-2.4,0.5c0.5-0.7,0.9-1.1,1.2-1.5C395.8,548.4,396.2,548.8,396.7,549.1z"/>
		<path class="st1" d="M409.4,631.2c-0.2-0.3-0.6-0.5-0.5-0.8c0-0.2,0.5-0.4,0.8-0.6c0.3,0.3,0.8,0.5,0.8,0.8
			c0.1,0.3-0.3,0.6-0.4,0.9C409.8,631.4,409.6,631.3,409.4,631.2z"/>
		<path class="st1" d="M390.6,595.4c0.1,0.3,0.5,0.5,0.4,0.8c-0.1,0.3-0.4,0.6-0.6,0.8c-0.2-0.3-0.7-0.5-0.7-0.8
			c0-0.3,0.3-0.6,0.5-0.9C390.3,595.4,390.5,595.4,390.6,595.4z"/>
		<path class="st1" d="M362.2,522.5c-0.6,0.2-1,0.5-1.1,0.5c-0.4-0.2-0.7-0.5-0.9-0.8c-0.1-0.1,0.5-0.5,0.6-0.5
			C361.3,521.8,361.6,522.1,362.2,522.5z"/>
		<path class="st1" d="M395,535.1c0.4,0.4,0.8,0.7,0.8,0.9c0,0.2-0.4,0.5-0.7,0.7c-0.3-0.2-0.8-0.4-0.9-0.7
			C394.2,535.8,394.7,535.5,395,535.1z"/>
		<path class="st1" d="M350.2,532.1c0.6,0.4,1,0.6,1.2,0.9c0.2,0.2,0.3,0.6,0.3,0.9c0,0.1-0.5,0.3-0.5,0.2c-0.3-0.2-0.7-0.4-0.8-0.7
			C350.2,533,350.2,532.6,350.2,532.1z"/>
		<path class="st1" d="M455,555.5c-0.3-0.3-0.6-0.6-0.7-0.9c0-0.1,0.5-0.3,0.8-0.5c0.2,0.4,0.4,0.8,0.6,1.2
			C455.4,555.3,455.2,555.4,455,555.5z"/>
		<path class="st1" d="M370.6,620.3c0.3,0.5,0.7,0.8,0.6,1c-0.1,0.3-0.6,0.4-0.9,0.6c-0.2-0.3-0.6-0.5-0.6-0.8
			C369.7,621,370.1,620.8,370.6,620.3z"/>
		<path class="st1" d="M356.8,635.2c0.4,0.4,0.9,0.6,0.9,0.8c0,0.2-0.4,0.6-0.7,0.6c-0.3,0-0.8-0.3-0.8-0.5
			C356.1,635.9,356.4,635.6,356.8,635.2z"/>
		<path class="st1" d="M386,566.6c0.1,0.5,0.3,1,0.4,1.5c0,0-0.5,0.1-0.8,0.2c-0.1-0.5-0.3-1-0.4-1.5
			C385.5,566.7,385.8,566.6,386,566.6z"/>
		<path class="st1" d="M357.6,606.6c0.8,0.3,1.4,0.5,2,0.7c-0.2,0.2-0.4,0.4-0.6,0.4C358.1,607.8,357.6,607.6,357.6,606.6z"/>
		<path class="st3" d="M353.5,558.9c-0.4-0.4-0.9-0.7-0.8-0.8c0.1-0.3,0.6-0.5,1-0.6c0.2,0,0.7,0.4,0.7,0.6
			C354.4,558.3,353.9,558.5,353.5,558.9z"/>
		<path class="st1" d="M371.5,614.6c0.1-0.5,0.1-1,0.2-1.5c0.2,0,0.6,0,0.6,0.1C372.7,613.8,372.9,614.3,371.5,614.6z"/>
		<path class="st1" d="M368.5,584.4c-0.4-0.4-0.9-0.7-0.9-0.9c0-0.2,0.4-0.5,0.7-0.7c0.3,0.2,0.8,0.4,0.8,0.6
			C369.2,583.7,368.8,583.9,368.5,584.4z"/>
		<path class="st1" d="M371,595.3c-0.4,0.1-0.8,0.4-1.2,0.4c-0.3,0-0.8-0.4-0.7-0.5c0.1-0.3,0.5-0.5,0.7-0.8
			c0.3,0.2,0.6,0.3,0.9,0.5C370.8,595,370.9,595.1,371,595.3z"/>
		<path class="st1" d="M380,546.8c0.2,0,0.4,0,0.5,0.1c0.4,0.3,0.8,0.7,1.2,1.1c-0.2,0.1-0.5,0.3-0.6,0.2c-0.5-0.4-1-0.8-1.4-1.2
			C379.8,547,379.9,546.9,380,546.8z"/>
		<path class="st1" d="M356.6,610.8c-0.4-0.4-0.8-0.6-0.8-0.9c0-0.2,0.4-0.6,0.6-0.6c0.3,0,0.8,0.3,0.9,0.5
			C357.4,610.1,357,610.4,356.6,610.8z"/>
		<path class="st1" d="M370.2,504.3c0.2-0.2,0.5-0.5,1-1c0,0.9,0,1.4,0,2c-0.2,0-0.3,0-0.5,0.1C370.6,505,370.4,504.6,370.2,504.3
			L370.2,504.3z"/>
		<path class="st1" d="M335.1,514.1c0.4,0.3,0.8,0.6,1.2,1c0,0-0.5,0.4-0.5,0.4c-0.5-0.3-0.9-0.6-1.3-0.9
			C334.7,514.4,334.9,514.3,335.1,514.1z"/>
		<path class="st1" d="M353,600.4c-0.6,0.3-0.9,0.6-1.2,0.6c-0.3,0-0.8-0.4-0.8-0.5c0.1-0.3,0.4-0.6,0.7-0.6
			C352.1,599.8,352.4,600.1,353,600.4z"/>
		<path class="st1" d="M371.7,582.9c-0.4,0.3-0.8,0.6-1,0.6c-0.3-0.1-0.7-0.3-0.8-0.6c-0.1-0.1,0.4-0.6,0.6-0.6
			C370.9,582.4,371.2,582.7,371.7,582.9z"/>
		<path class="st1" d="M350.1,564.5c-0.6,0.2-1,0.5-1.2,0.5c-0.3,0-0.5-0.4-0.8-0.6c0.3-0.2,0.6-0.5,0.9-0.5
			C349.3,563.9,349.6,564.2,350.1,564.5z"/>
		<path class="st1" d="M410.7,560.6c0,0.2,0,0.7-0.1,1.2c-0.4,0-0.9,0-1-0.1c-0.9-1-1.3-0.5-1.7,0.3c-0.1,0.3-0.4,0.5-0.5,0.7
			c-0.7-0.9-1.5-1.8-2.2-2.8C407,560.1,408.8,560.3,410.7,560.6z"/>
		<path class="st1" d="M411.3,532.4c1.5-1.1,2.9-2.1,4.4-3.2C416.6,531,414.3,532.6,411.3,532.4z"/>
		<path class="st1" d="M395.4,516.3c-0.3,0.8-0.5,1.5-1,2.2c-0.1,0.1-1.2-0.1-1.8-0.2c0.1-0.9,0.2-1.8,0.2-2.6c0.1,0,0.1,0,0.2,0.1
			c0.2,0.5,0.4,1,0.7,1.8c0.6-0.7,0.9-1,1.2-1.3C395.1,516.2,395.3,516.3,395.4,516.3z"/>
		<path class="st1" d="M405.6,501.7c-0.4,0.5-0.7,1.1-1.3,1.6c-0.2,0.1-0.7,0-1.3,0c0.8-0.8,1.4-1.3,2.1-1.9
			C405.2,501.5,405.4,501.6,405.6,501.7z"/>
		<path class="st2" d="M368.4,539c1.2-1.7,0.9-3.2-1-4.4c-1.3-0.8-1.3-1.2-0.3-2.2c0.2-0.2,0.4-0.5,0.7-0.8c0.2,0.3,0.3,0.5,0.6,0.9
			c0.2-0.4,0.2-0.6,0.3-0.8c0.1,0,0.2,0,0.3,0c0.1,0.4,0.3,0.8,0.3,1.3c0,0.6-0.1,1.3,0,1.9c0.4,1.5,1.2,1.7,2.7,0.7
			c0.1,0.6,0.3,1.1,0.4,1.7c0,0.2-0.4,0.4-0.7,0.6c0,0.9-0.3,2.1,1.8,2.3c0.1,0,0.2,0.2,0.2,0.3c-1,1,0.8,1.4,0.9,2.2
			c0.1,0.6,1,1.1,1.3,1.4c-0.3,1.2-0.4,2.4-0.8,3.4c-0.2,0.4-0.9,0.8-1.4,1.2c-0.9-0.8,1.1-2-1.1-2.4c0.2-0.3,0.6-0.7,0.8-1.1
			c0.1-0.4,0-0.9-0.1-1.3c-0.4,0.1-0.9,0.1-1.5,0.2c-0.2-0.5-0.4-1.2-0.7-2c-0.2,0.2-0.4,0.4-1,0.9"/>
		<path class="st1" d="M376.8,559c-0.3-0.2-0.7-0.5-0.9-0.4c-1.7,0.4-1.4-0.4-1.4-1.2c0-1.4,0.5-2.7-0.4-4.1
			c-0.3-0.5,0.6-1.3,1.3-2.1c0.3,1.1,0.6,2.3,0.9,3.4c0.1,0,0.4,0,0.7,0.1c0,0.1,0.1,0.2,0.1,0.3c-0.3,0.1-0.7,0.3-1,0.3
			c-1.2-0.2-1.1,0.2-0.7,0.8c0.6,1,1.2,1.9,1.8,2.9C377,558.9,376.9,559,376.8,559z"/>
		<path class="st1" d="M366.4,528.2c-1.6-0.7-0.9,0.4-1.2,0.6c-0.9-0.5-0.2-2-2.1-2.1c0.1-0.4,0.2-0.8,0.3-1.2
			C364.6,525.4,365.8,526.4,366.4,528.2z"/>
		<path class="st1" d="M374,563.5c0.3-1.1,0.6-2.1,0.9-3.3C376.3,560.9,376,562.2,374,563.5z"/>
		<path class="st1" d="M370.5,528.4c0.2,0.5,0.5,1,0.6,1.5c0.1,0.3-0.2,0.6-0.3,0.9c-0.2,0-0.3,0-0.5,0c-0.3-0.8-0.6-1.5-0.9-2.3
			C369.9,528.5,370.2,528.4,370.5,528.4L370.5,528.4z"/>
		<path class="st1" d="M370.6,550.9c-1.2-0.4-2.3-0.7-3.5-1.1c0-0.1,0-0.2,0-0.3c1.4,0.1,2.9,0.7,4-0.6c0.1,0.1,0.1,0.2,0.2,0.3
			C371,549.9,370.8,550.4,370.6,550.9L370.6,550.9z"/>
		<path class="st1" d="M361.5,531.9c-0.2-0.7-0.4-1.4-0.5-2.1c0-0.3,0.4-0.5,0.6-0.8c0.2,0,0.4,0.1,0.5,0.1
			c-0.1,0.9-0.2,1.9-0.3,2.8C361.7,532,361.6,532,361.5,531.9z"/>
		<path class="st1" d="M374.5,550c0.3-0.4,0.5-0.8,0.9-1.4c0.4,0.8,0.6,1.4,1,2.3C375.7,550.5,375.2,550.3,374.5,550z"/>
	</g>
</g>
<text transform="matrix(1 0 0 1 268.1605 699.8945)"><tspan x="0" y="0" class="st4 st5">Scorpion</tspan><tspan x="21.7" y="49.2" class="st4 st5">Tequila</tspan></text>
</svg>
