<?xml version="1.0" encoding="utf-8"?>
<!-- Generator: Adobe Illustrator 21.0.2, SVG Export Plug-In . SVG Version: 6.00 Build 0)  -->
<svg version="1.1" xmlns="http://www.w3.org/2000/svg" xmlns:xlink="http://www.w3.org/1999/xlink" x="0px" y="0px"
	 viewBox="0 0 1728 2592" style="enable-background:new 0 0 1728 2592;" xml:space="preserve">
<style type="text/css">
	.st0{display:none;}
	.st1{clip-path:url(#SVGID_2_);}
	.st2{fill:#6F1611;stroke:#D38E32;stroke-miterlimit:10;}
	.st3{fill:#D3A054;}
	.st4{fill:none;stroke:#000000;stroke-miterlimit:10;}
	.st5{fill:#008CC0;stroke:#000000;stroke-miterlimit:10;}
	.st6{fill:#FEE5D7;}
	.st7{fill:#75421B;}
	.st8{fill:none;}
	.st9{fill:none;stroke:#D38E32;stroke-width:23;stroke-miterlimit:10;}
	.st10{fill:#993421;}
	.st11{font-family:'Helvetica-Bold';}
	.st12{font-size:217.5154px;}
	.st13{font-size:85.3769px;}
	.st14{fill:#A64028;}
	.st15{fill:#D3A054;stroke:#D38E32;stroke-miterlimit:10;}
	.st16{font-size:155.8952px;}
	.st17{letter-spacing:5.8;}
</style>
<g id="Layer_1" class="st0">
</g>
<g id="Layer_3">
</g>
<g id="Layer_4">
</g>
<g id="cup">
</g>
<g id="Layer_5">
	<g>
		<defs>
			<rect id="SVGID_1_" width="1728" height="2592"/>
		</defs>
		<clipPath id="SVGID_2_">
			<use xlink:href="#SVGID_1_"  style="overflow:visible;"/>
		</clipPath>
		<g class="st1">
			<rect class="st2" width="2070.5" height="2592"/>
			<path class="st3" d="M2927.1,1296c0,626.2-523,1133.8-1168.2,1133.8c-279.3,0-535.8-95.1-736.8-253.9
				c-55.7-44-107.2-92.9-153.6-146c-19.9-22.7-38.9-46.1-56.9-70.3c-41.9-56.2-78.6-116.3-109.4-179.6
				c-32.1-65.8-57.8-135.1-76.4-207.1c-4.8-18.4-9.1-37.1-12.9-55.8c-14.2-69.7-21.8-141.6-22.2-215.3c0-1.9,0-3.8,0-5.7
				c0-17.2,0.4-34.4,1.2-51.5c2.7-58.3,9.9-115.5,21.3-171.2c6.5-31.8,14.4-63.1,23.6-93.9c24.4-81.5,57.9-159.1,99.4-231.9
				c12.1-21.2,24.8-42,38.2-62.3c207.6-314.6,570.9-523.1,984.4-523.1C2404.1,162.2,2927.1,669.8,2927.1,1296z"/>
			<path class="st4" d="M2535.3,648.5"/>
			<line class="st4" x1="2565.4" y1="678.1" x2="2565.4" y2="678.1"/>
			<path class="st4" d="M2084.3,713.9"/>
			<path class="st4" d="M1549.8,694.2"/>
			<path class="st4" d="M2556.3,697.1"/>
			<path class="st4" d="M2083.1,716.5"/>
			<path class="st5" d="M3325.8,1580.3"/>
			<path class="st6" d="M2424.4,112.1c-110.6-71.4-981.2-74.6-1228.6,8.5c-44.2,14.8-45.8,129-43.3,211.7
				c0.3,10.2,572,16.7,639.7,14.8c67.7-1.9,651.7-38.2,683.2-43.5c0,0-6-48.1-16.1-85.1S2449.7,128.9,2424.4,112.1"/>
			<path class="st6" d="M1134.2,453.4c-22.2,0.6-40.6-16.4-41.4-37.9c-0.8-22.1,15.9-42.8,39.1-40.2l632.2,8.4l712.4-46.5
				c22.2-0.6,40.8,16.4,41.4,37.9c0.6,21.6-16.8,39.6-39.1,40.2l-712.4,46.5l-632.2-8"/>
			<path class="st6" d="M2533.7,480.3c0,0,0,0-14-45.1l-742.2,48.2l-688.2-7.3l-6.2,45.3l695.4,14.8L2533.7,480.3"/>
			<path class="st6" d="M2470.4,529.1l-683.8,50.6l-629.8-13.4l135,732.6c0,0,74.1,149.2,514.3,132.3s548.6-169,555.6-162.6
				C2368.5,1275,2470.4,529.1,2470.4,529.1z"/>
			<path class="st7" d="M2397.7,1267.6l-116,726.8c0,0-57.1,205.5-418.3,211.4c-361.3,5.8-458.5-147.1-458.5-147.1l-144.8-758.9
				c0,0,18.6,172.2,542.5,162.2C2276.7,1453,2397.7,1267.6,2397.7,1267.6z"/>
			<path class="st6" d="M2263,2106l-39,239.2c0,0-38,157.4-353,185.9c-315,28.6-426.7-194.8-426.7-194.8l-24.5-218.7
				c0,0,106.9,125.2,404.8,136.1C2173,2266.4,2263,2106,2263,2106z"/>
			<rect class="st8" width="2070.5" height="2592"/>
			<polyline class="st9" points="2070.5,0 0,0 0,2592 2070.5,2592 			"/>
			<rect class="st8" width="2070.5" height="2592"/>
			<path class="st9" d="M2044,912"/>
			<text transform="matrix(1.0303 0 0 1 93.3398 278.019)" class="st10 st11 st12">Khaldi</text>
			<g>
				<text transform="matrix(1.0303 0 0 1 93.3398 364.4653)" class="st10 st11 st13">16th Century</text>
			</g>
			<g>
				<path class="st14" d="M1022.3,771.2c-9.2-35.3-35-65.5-77.3-90.5c-39.1-23.1-75.9-31.8-110.4-25.9c-23,4-43.1,14.1-60.1,30.5
					c-13.4,20.3-26.2,41.1-38.2,62.3c-4.5,15.8-5,31.7-1.7,47.5c5.7,27.1,20.4,50.5,44.2,70.4l30.7-48.8
					c-10.5-10.6-17.3-20.2-20.5-28.8c-6.1-15.7-3.8-32,6.8-48.9c10.3-16.4,25.6-26,45.8-28.6c20.2-2.6,43.9,4.1,71.1,20.1
					c27.2,16.1,45,33.5,53.5,52.4c8.5,18.9,7.2,37.1-3.8,54.6c-10.8,17.2-24.2,27-40.2,29.6c-9,1.4-20.3,0.2-33.8-3.5l-30.9,49.1
					c15.6,8.2,34,11.8,55.3,10.6c38.1-2.3,69.4-23,94-62.1C1025.1,832,1030.3,802,1022.3,771.2z"/>
				<path class="st14" d="M900.4,999.7c-18.2-33.2-52.5-56.1-102.8-68.5c-49.4-12.2-90.7-7.9-124,12.6c-14.8,8.3-27,20.1-36.7,35.6
					c-9.2,30.8-17.1,62.1-23.6,93.9c1.2,16.9,6.1,32,14.6,45.4c19.2,33.4,53.5,56.1,102.9,68.3c50.4,12.4,91.7,8.2,124-12.5
					c26.7-14.9,45-41.4,54.9-79.6C919.6,1056.9,916.5,1025.2,900.4,999.7z M860.9,1083.1c-5.8,22.1-18.8,37.5-39,46.4
					c-20.2,8.8-45.8,9.4-76.6,1.8c-31-7.6-53.1-20-66.5-37.1c-13.4-17.1-17.2-36.7-11.5-58.8c5.8-22.1,18.8-37.7,39-46.7
					c20.2-9,45.8-9.7,76.8-2.1c31,7.6,53.1,20.1,66.5,37.4C862.9,1041.3,866.7,1061,860.9,1083.1z"/>
				<path class="st14" d="M872.3,1237.6l-280.4,6.9c-0.8,17.1-1.2,34.2-1.2,51.5c0,1.9,0,3.8,0,5.7l118.7-2.9l3.2,121.9l49.3-1.2
					l-3.2-121.9l65.2-1.6l3.7,139.1l49.8-1.2L872.3,1237.6z"/>
				<path class="st14" d="M881.7,1445.7L612.9,1517c3.8,18.8,8.1,37.4,12.9,55.8l112.9-30l33.2,117.7l47.5-12.6l-33.2-117.7
					l62.9-16.7l37.8,134.2l48.1-12.8L881.7,1445.7z"/>
				<path class="st14" d="M1002.2,1845.5l43.5-24.3l-103.7-175L702.2,1780c30.8,63.3,67.5,123.4,109.4,179.6l35.9-20l-78.3-132.1
					l63.2-35.3l68.7,115.9l42.7-23.8l-68.7-115.9l52.2-29.2L1002.2,1845.5z"/>
				<path class="st14" d="M1174.6,2018.5l35.5-34.5l-147.1-142.8L868.5,2030c46.5,53.1,97.9,102,153.6,146l28.3-27.4l-111-107.8
					l51.6-50l97.4,94.6l34.9-33.8l-97.4-94.6l42.6-41.3L1174.6,2018.5z"/>
			</g>
			<text transform="matrix(1.0303 0 0 1 93.3398 2010.1143)"><tspan x="0" y="0" class="st15 st11 st16">“It’s ok, </tspan><tspan x="82.4" y="187.1" class="st15 st11 st16">we have </tspan><tspan x="82.4" y="374.1" class="st15 st11 st16">co</tspan><tspan x="264.3" y="374.1" class="st15 st11 st16 st17">f</tspan><tspan x="322.4" y="374.1" class="st15 st11 st16">f</tspan><tspan x="374.4" y="374.1" class="st15 st11 st16 st17">e</tspan><tspan x="467.3" y="374.1" class="st15 st11 st16">e…”</tspan></text>
			<rect x="2.8" class="st8" width="1725.2" height="2592"/>
		</g>
	</g>
</g>
</svg>
