<?xml version="1.0" encoding="utf-8"?>
<!-- Generator: Adobe Illustrator 21.0.2, SVG Export Plug-In . SVG Version: 6.00 Build 0)  -->
<svg version="1.1" id="Layer_1" xmlns="http://www.w3.org/2000/svg" xmlns:xlink="http://www.w3.org/1999/xlink" x="0px" y="0px"
	 viewBox="0 0 1920 1080" style="enable-background:new 0 0 1920 1080;" xml:space="preserve">
<style type="text/css">
	.st0{fill:none;stroke:#FFFFFF;stroke-width:25;stroke-miterlimit:10;}
	.st1{fill:#FFFFFF;stroke:#FFFFFF;stroke-miterlimit:10;}
	.st2{fill:none;stroke:#FFFFFF;stroke-miterlimit:10;}
	.st3{fill:#FFFFFF;}
	.st4{fill:none;stroke:#FFFFFF;stroke-width:33;stroke-miterlimit:10;}
</style>
<g id="Logo">
	<circle class="st0" cx="931.8" cy="565.2" r="308"/>
	<rect x="664.9" y="418.6" class="st1" width="33.5" height="295.4"/>
	<rect x="840.3" y="418.6" class="st2" width="33.5" height="295.4"/>
	
		<rect x="717.2" y="410.8" transform="matrix(0.7071 -0.7071 0.7071 0.7071 -122.8375 658.9106)" class="st1" width="33.5" height="133.9"/>
	
		<rect x="738" y="461" transform="matrix(0.7071 -0.7071 0.7071 0.7071 -102.0547 709.1063)" class="st1" width="133.9" height="33.5"/>
	<rect x="840.3" y="418.6" class="st3" width="33.5" height="295.4"/>
	<rect x="1015.7" y="418.6" class="st1" width="33.5" height="295.4"/>
	
		<rect x="892.5" y="410.8" transform="matrix(0.7071 -0.7071 0.7071 0.7071 -71.5223 782.8535)" class="st1" width="33.5" height="133.9"/>
	
		<rect x="913.4" y="461" transform="matrix(0.7071 -0.7071 0.7071 0.7071 -50.6867 833.118)" class="st1" width="133.9" height="33.5"/>
	<path class="st4" d="M1032.4,436c231.6-20.6,265.4,267.5,0,261.5"/>
</g>
<g id="Ball">
	<circle class="st3" cx="938.8" cy="565.2" r="41.5"/>
</g>
</svg>
